<?xml version="1.0" standalone="no"?>
<!DOCTYPE svg PUBLIC "-//W3C//DTD SVG 20010904//EN"
 "http://www.w3.org/TR/2001/REC-SVG-20010904/DTD/svg10.dtd">
<svg version="1.0" xmlns="http://www.w3.org/2000/svg"
 width="300.000000pt" height="300.000000pt" viewBox="0 0 300.000000 300.000000"
 preserveAspectRatio="xMidYMid meet">
<metadata>
Created by potrace 1.14, written by Peter Selinger 2001-2017
</metadata>
<g transform="translate(0.000000,300.000000) scale(0.100000,-0.100000)"
fill="#000000" stroke="none">
<path d="M715 2508 c-86 -11 -154 -38 -193 -76 -63 -64 -72 -109 -77 -392 -5
-258 -10 -343 -25 -371 -9 -16 -65 -39 -95 -39 -11 0 -15 -229 -5 -231 3 0 14
-2 25 -3 92 -12 94 -20 100 -386 4 -264 7 -296 35 -350 51 -100 149 -138 375
-144 l39 -1 1 107 c1 102 -1 108 -20 109 -33 1 -65 8 -87 20 -37 20 -46 63
-47 248 -4 354 -24 442 -114 496 l-39 23 33 16 c63 30 102 117 113 251 3 33 5
140 6 238 1 99 6 192 11 207 15 42 41 61 96 68 l48 7 0 105 0 105 -60 0 c-33
0 -87 -3 -120 -7z"/>
<path d="M2107 2512 c-2 -4 -3 -52 -3 -107 1 -80 4 -100 16 -102 101 -13 126
-31 135 -97 4 -23 8 -135 9 -251 5 -291 29 -374 124 -425 20 -10 30 -19 22
-20 -26 0 -90 -60 -106 -98 -30 -72 -36 -130 -40 -344 -2 -120 -8 -235 -13
-256 -14 -51 -41 -74 -93 -78 -24 -1 -45 -3 -48 -3 -5 -1 -5 -189 -1 -212 2
-10 157 0 242 16 37 7 111 46 135 72 54 59 64 100 70 313 10 359 12 406 24
432 14 29 38 42 80 43 l25 1 3 117 c2 89 -1 117 -10 117 -7 0 -29 5 -49 10
-62 17 -67 44 -70 370 -1 113 -5 231 -10 264 -16 123 -77 191 -199 221 -69 17
-237 29 -243 17z"/>
<path d="M1323 2482 c-23 -2 -33 -9 -34 -20 0 -9 -2 -24 -4 -32 -2 -8 -6 -31
-10 -50 -3 -19 -15 -80 -25 -135 -11 -55 -22 -118 -26 -140 -3 -22 -8 -43 -10
-46 -2 -4 -6 -24 -9 -45 -3 -22 -24 -131 -45 -244 -22 -113 -42 -218 -45 -235
-3 -16 -14 -77 -25 -135 -11 -58 -22 -118 -25 -135 -3 -16 -8 -40 -10 -53 -3
-12 -14 -71 -25 -130 -10 -59 -22 -120 -25 -136 -3 -16 -7 -34 -8 -40 -1 -8
48 -12 166 -14 92 -1 167 0 167 3 0 6 41 255 45 275 2 8 4 24 4 36 1 20 6 21
118 20 l117 -1 27 -165 c15 -91 28 -166 28 -167 1 -2 73 -3 161 -3 121 0 160
3 160 13 0 6 -7 48 -15 91 -18 95 -23 122 -30 161 -3 17 -8 41 -10 55 -10 47
-15 75 -26 135 -5 33 -19 105 -29 160 -11 55 -22 116 -25 135 -4 19 -15 80
-26 135 -11 55 -22 116 -25 135 -3 19 -14 78 -24 130 -11 52 -22 111 -25 130
-3 19 -14 80 -24 135 -11 55 -22 117 -26 138 -4 25 -11 37 -23 38 -58 3 -333
3 -359 1z m183 -486 c1 -7 5 -38 8 -68 4 -31 8 -64 10 -74 2 -11 7 -45 11 -78
3 -32 8 -68 10 -80 2 -11 6 -42 9 -67 4 -25 9 -57 11 -70 2 -13 7 -45 10 -71
l5 -48 -81 0 -82 0 7 58 c7 63 10 83 26 192 6 41 13 95 16 120 3 25 7 56 9 70
3 14 8 51 11 83 6 52 15 67 20 33z"/>
</g>
</svg>
